HIERARCHY
ROOT Hips
{
 OFFSET 0.000000 0.000000 0.000000
 CHANNELS 6 Xposition Yposition Zposition Yrotation Xrotation Zrotation
 JOINT Chest
 {
  OFFSET 0.000000 10.483295 0.018402
  CHANNELS 3 Yrotation Xrotation Zrotation
  JOINT Chest2
  {
   OFFSET 0.000000 12.196575 -0.033437
   CHANNELS 3 Yrotation Xrotation Zrotation
   JOINT Chest3
   {
    OFFSET 0.000000 11.021500 0.000000
    CHANNELS 3 Yrotation Xrotation Zrotation
    JOINT Chest4
    {
     OFFSET 0.000000 11.021400 0.000000
     CHANNELS 3 Yrotation Xrotation Zrotation
     JOINT Neck
     {
      OFFSET 0.000000 15.252000 0.000000
      CHANNELS 3 Yrotation Xrotation Zrotation
      JOINT Head
      {
       OFFSET 0.000000 10.245098 -0.079700
       CHANNELS 3 Yrotation Xrotation Zrotation
       End Site
       {
        OFFSET 0.000000 19.813991 -0.041600
       }
      }
     }
     JOINT RightCollar
     {
      OFFSET -3.058700 8.489100 0.000000
      CHANNELS 3 Yrotation Xrotation Zrotation
      JOINT RightShoulder
      {
       OFFSET -13.730400 0.000000 0.000000
       CHANNELS 3 Yrotation Xrotation Zrotation
       JOINT RightElbow
       {
        OFFSET -30.364119 -0.000000 0.000000
        CHANNELS 3 Yrotation Xrotation Zrotation
        JOINT RightWrist
        {
         OFFSET -24.952755 0.000000 0.004743
         CHANNELS 3 Yrotation Xrotation Zrotation
         End Site
         {
          OFFSET -18.738600 0.000000 0.000000
         }
        }
       }
      }
     }
     JOINT LeftCollar
     {
      OFFSET 3.058700 8.489100 0.000000
      CHANNELS 3 Yrotation Xrotation Zrotation
      JOINT LeftShoulder
      {
       OFFSET 13.730400 0.000000 0.000000
       CHANNELS 3 Yrotation Xrotation Zrotation
       JOINT LeftElbow
       {
        OFFSET 30.364119 -0.000000 0.000000
        CHANNELS 3 Yrotation Xrotation Zrotation
        JOINT LeftWrist
        {
         OFFSET 24.952755 -0.000000 0.004743
         CHANNELS 3 Yrotation Xrotation Zrotation
         End Site
         {
          OFFSET 18.738600 -0.000000 -0.000000
         }
        }
       }
      }
     }
    }
   }
  }
 }
 JOINT RightHip
 {
  OFFSET -8.366805 -0.090331 -0.009218
  CHANNELS 3 Yrotation Xrotation Zrotation
  JOINT RightKnee
  {
   OFFSET 0.000000 -46.515684 0.008890
   CHANNELS 3 Yrotation Xrotation Zrotation
   JOINT RightAnkle
   {
    OFFSET 0.000000 -42.864747 0.048728
    CHANNELS 3 Yrotation Xrotation Zrotation
    JOINT RightToe
    {
     OFFSET 0.000000 -10.045100 15.254100
     CHANNELS 3 Yrotation Xrotation Zrotation
     End Site
     {
      OFFSET 0.000000 -1.537700 6.138800
     }
    }
   }
  }
 }
 JOINT LeftHip
 {
  OFFSET 8.366805 -0.090331 -0.009218
  CHANNELS 3 Yrotation Xrotation Zrotation
  JOINT LeftKnee
  {
   OFFSET 0.000000 -46.515684 0.008890
   CHANNELS 3 Yrotation Xrotation Zrotation
   JOINT LeftAnkle
   {
    OFFSET 0.000000 -42.864747 0.048728
    CHANNELS 3 Yrotation Xrotation Zrotation
    JOINT LeftToe
    {
     OFFSET 0.000000 -10.045100 15.254100
     CHANNELS 3 Yrotation Xrotation Zrotation
     End Site
     {
      OFFSET 0.000000 -1.537700 6.138800
     }
    }
   }
  }
 }
}
MOTION
Frames: 7
Frame Time: 0.004167
248.474905 100.748597 19.724909 166.030678 -9.389302 2.116377 6.421813 10.770700 0.564981 2.824915 4.796549 0.098628 2.824996 4.796688 0.098587 2.116673 3.597952 0.051739 -1.997158 17.676055 -0.315931 -3.576213 -3.344225 0.094668 -4.882257 -1.458497 3.112340 9.374393 3.648015 77.941180 30.572814 13.592321 11.368669 -11.581827 13.123388 -26.611382 -4.531973 -3.545019 -4.851207 -1.357452 -1.558924 -78.327120 -26.654484 3.049614 -7.316166 1.714427 19.087827 17.260095 3.045155 9.130586 1.064847 9.033103 11.614298 -2.953320 -6.140689 -12.135817 3.310441 -0.014446 0.193948 -0.126570 21.884306 11.722184 0.724480 -0.106834 7.566019 1.197458 11.675855 -10.272448 -4.167006 -0.000318 0.044515 0.063976
248.516078 100.745020 19.639238 166.011956 -9.363618 2.127490 6.412241 10.754366 0.570909 2.820837 4.788984 0.101676 2.820888 4.788962 0.101686 2.113565 3.592306 0.053937 -1.993032 17.764725 -0.320590 -3.565651 -3.179831 0.082156 -4.875847 -1.433943 3.121523 9.355972 3.695647 77.942163 30.536232 13.607635 11.370934 -11.582142 13.125078 -26.606754 -4.525996 -3.535706 -4.846880 -1.338309 -1.542508 -78.349885 -26.679237 3.061489 -7.332122 1.712110 19.087911 17.263295 3.120561 9.167118 1.073827 9.022623 11.619324 -2.941544 -6.228120 -12.244837 3.337445 -0.013416 0.197483 -0.130029 21.892821 11.779813 0.744702 -0.080815 7.532383 1.184174 11.711357 -10.316732 -4.227525 -0.000329 0.044630 0.066952
248.556345 100.741685 19.551846 165.991599 -9.336097 2.139559 6.402194 10.737368 0.577358 2.816349 4.781461 0.104727 2.816359 4.781510 0.104788 2.110215 3.586694 0.056510 -1.988314 17.852805 -0.326749 -3.553665 -3.016392 0.067334 -4.868220 -1.410165 3.129833 9.338350 3.744634 77.942106 30.499470 13.623634 11.372706 -11.581612 13.126647 -26.601880 -4.515783 -3.527620 -4.842700 -1.314759 -1.525898 -78.375022 -26.701422 3.082154 -7.349779 1.708770 19.087730 17.265973 3.194118 9.205127 1.080260 9.018856 11.619688 -2.927987 -6.296674 -12.354128 3.361787 -0.013196 0.200764 -0.134403 21.901824 11.838325 0.762189 -0.053048 7.497827 1.172638 11.723475 -10.361442 -4.284636 -0.000504 0.042858 0.069062
248.595276 100.738616 19.462499 165.969775 -9.307148 2.151717 6.391676 10.720288 0.583951 2.811513 4.774091 0.108229 2.811578 4.774089 0.108110 2.106587 3.581120 0.059116 -1.982437 17.940154 -0.334139 -3.539082 -2.854728 0.049260 -4.857988 -1.387629 3.138503 9.325896 3.795868 77.940536 30.461668 13.634786 11.371483 -11.582848 13.129156 -26.595844 -4.502429 -3.519870 -4.838496 -1.282889 -1.510962 -78.402465 -26.721912 3.114843 -7.370419 1.705331 19.087110 17.268617 3.262424 9.244579 1.084591 9.022694 11.616223 -2.912979 -6.284578 -12.465146 3.371997 -0.013502 0.202745 -0.140193 21.914278 11.896985 0.778648 -0.025355 7.464140 1.162952 11.666297 -10.410129 -4.330953 -0.000716 0.039509 0.070652
248.633720 100.735423 19.373234 165.950426 -9.277718 2.161558 6.381113 10.701061 0.594475 2.806107 4.766693 0.113099 2.806142 4.766539 0.113162 2.102519 3.575604 0.062965 -1.976357 18.024831 -0.344207 -3.523062 -2.697947 0.026764 -4.845500 -1.371808 3.141923 9.333105 3.852519 77.936130 30.414380 13.627916 11.364472 -11.582989 13.131946 -26.589628 -4.486928 -3.514956 -4.837932 -1.245168 -1.494449 -78.434090 -26.746717 3.157644 -7.388485 1.704187 19.083821 17.265424 3.320699 9.284134 1.088925 9.037838 11.611806 -2.898753 -6.304293 -12.577012 3.390211 -0.012835 0.205989 -0.145106 21.929278 11.953584 0.795516 0.004124 7.432186 1.156022 11.626134 -10.461376 -4.381435 -0.001025 0.039007 0.071931
248.672792 100.732194 19.282074 165.927693 -9.246293 2.172427 6.370339 10.684603 0.603628 2.800996 4.759382 0.116924 2.801088 4.759534 0.116923 2.098722 3.570200 0.065697 -1.969092 18.109979 -0.354241 -3.505556 -2.539841 0.003425 -4.833595 -1.352471 3.150653 9.324580 3.903817 77.932505 30.372185 13.636672 11.359930 -11.584191 13.134883 -26.580824 -4.471376 -3.511081 -4.833861 -1.201693 -1.478437 -78.464796 -26.763739 3.205031 -7.412929 1.700166 19.084218 17.270071 3.377508 9.325036 1.089852 9.053817 11.603663 -2.883783 -6.424017 -12.687825 3.428842 -0.010644 0.210974 -0.148175 21.944048 12.011010 0.811070 0.036700 7.400196 1.148728 11.599407 -10.512616 -4.434661 -0.000928 0.037230 0.072728
248.711501 100.729182 19.188992 165.902908 -9.215767 2.184746 6.359941 10.669779 0.612619 2.796169 4.753036 0.120771 2.796310 4.752938 0.120722 2.095015 3.565418 0.068723 -1.960933 18.194667 -0.365984 -3.485651 -2.383109 -0.022660 -4.823350 -1.334634 3.159656 9.311241 3.953344 77.927817 30.328915 13.653359 11.358192 -11.585389 13.137588 -26.571439 -4.456385 -3.508869 -4.831252 -1.153085 -1.461758 -78.495450 -26.778813 3.257901 -7.439210 1.695466 19.084749 17.276117 3.433624 9.369981 1.089757 9.072899 11.591653 -2.869104 -6.507747 -12.798350 3.461909 -0.009267 0.214336 -0.152302 21.960155 12.071375 0.824826 0.072694 7.368739 1.143926 11.575028 -10.564384 -4.489626 -0.000740 0.034827 0.072875
